<?xml version="1.0" encoding="UTF-8" standalone="no"?>
<!-- Created with Inkscape (http://www.inkscape.org/) -->

<svg
   xmlns:dc="http://purl.org/dc/elements/1.1/"
   xmlns:cc="http://creativecommons.org/ns#"
   xmlns:rdf="http://www.w3.org/1999/02/22-rdf-syntax-ns#"
   xmlns:svg="http://www.w3.org/2000/svg"
   xmlns="http://www.w3.org/2000/svg"
   xmlns:sodipodi="http://sodipodi.sourceforge.net/DTD/sodipodi-0.dtd"
   xmlns:inkscape="http://www.inkscape.org/namespaces/inkscape"
   sodipodi:docname="logo.svg"
   width="81.792725mm"
   height="33.175785mm"
   viewBox="0 0 289.81674 117.55199"
   id="svg2"
   version="1.1"
   inkscape:version="0.91 r13725"
   inkscape:export-filename="C:\Users\grind_000\path4555.png"
   inkscape:export-xdpi="155.27"
   inkscape:export-ydpi="155.27">
  <defs
     id="defs4" />
  <sodipodi:namedview
     showguides="false"
     id="base"
     pagecolor="#ffffff"
     bordercolor="#666666"
     borderopacity="1.0"
     inkscape:pageopacity="0.0"
     inkscape:pageshadow="2"
     inkscape:zoom="4"
     inkscape:cx="87.208382"
     inkscape:cy="62.590779"
     inkscape:document-units="px"
     inkscape:current-layer="layer1"
     showgrid="false"
     showborder="true"
     inkscape:window-width="3840"
     inkscape:window-height="2050"
     inkscape:window-x="-12"
     inkscape:window-y="-12"
     inkscape:window-maximized="1"
     fit-margin-top="0"
     fit-margin-left="0"
     fit-margin-right="0"
     fit-margin-bottom="0" />
  <metadata
     id="metadata7">
    <rdf:RDF>
      <cc:Work
         rdf:about="">
        <dc:format>image/svg+xml</dc:format>
        <dc:type
           rdf:resource="http://purl.org/dc/dcmitype/StillImage" />
        <dc:title></dc:title>
      </cc:Work>
    </rdf:RDF>
  </metadata>
  <g
     inkscape:label="Ebene 1"
     inkscape:groupmode="layer"
     id="layer1"
     transform="translate(-266.90971,-164.94251)">
    <path
       sodipodi:nodetypes="ssssssssss"
       inkscape:connector-curvature="0"
       id="path4415"
       d="m 272.77171,229.10751 c -10.66207,-16.19859 1.64806,-36.49342 18.19245,-44.55113 31.73968,-15.45831 68.8487,-21.38865 103.52235,-13.14399 35.6199,8.46964 72.64514,7.56135 109.12587,7.8561 18.41255,0.14876 40.58235,5.21443 49.53898,21.50529 11.42722,20.7845 -12.42762,45.24094 -35.8219,45.9652 -18.95435,0.58678 -39.92517,2.92263 -53.98967,16.58853 -9.26015,8.9977 -21.99602,14.30918 -35.72184,14.70891 -37.27804,1.08567 -101.45531,-8.8091 -110.26701,-11.11161 -20.06436,-5.24285 -33.95088,-21.66996 -44.57923,-37.8173 z"
       style="opacity:0.78;fill:#e3c341;fill-opacity:1;fill-rule:evenodd;stroke:none;stroke-width:1px;stroke-linecap:butt;stroke-linejoin:miter;stroke-opacity:1" />
    <path
       style="opacity:0.4;fill:#ffe680;fill-opacity:1;fill-rule:evenodd;stroke:none;stroke-width:1px;stroke-linecap:butt;stroke-linejoin:miter;stroke-opacity:1"
       d="m 270.9314,230.32015 c -10.75484,-17.24376 1.6624,-38.84806 18.35075,-47.42567 32.01585,-16.45572 69.44776,-22.76869 104.42312,-13.99208 35.92983,9.01613 73.27723,8.04923 110.07539,8.363 18.57276,0.15836 40.93547,5.55088 49.97003,22.89287 11.52665,22.12556 -12.53575,48.15999 -36.13359,48.93097 -19.11928,0.62466 -40.27257,3.11121 -54.45944,17.65887 -9.34073,9.57826 -22.18742,15.23244 -36.03267,15.65797 -37.6024,1.15571 -102.3381,-9.37749 -111.22646,-11.82856 -20.23895,-5.58114 -34.2463,-23.06817 -44.96713,-40.25737 z"
       id="path4142"
       inkscape:connector-curvature="0"
       sodipodi:nodetypes="ssssssssss" />
    <path
       style="opacity:0.2;fill:#fff6d5;fill-opacity:1;fill-rule:evenodd;stroke:none;stroke-width:1px;stroke-linecap:butt;stroke-linejoin:miter;stroke-opacity:1"
       d="m 272.9082,207.48633 c -6.45118,8.70515 -8.56188,19.49176 -1.97656,28.83574 10.72083,15.21187 24.72785,30.6877 44.9668,35.62683 8.88836,2.16912 73.62416,11.49026 111.22656,10.4675 13.84525,-0.37658 26.69247,-5.38055 36.0332,-13.85699 14.18687,-12.87419 35.33971,-15.07413 54.45899,-15.62693 14.4398,-0.4175 29.03938,-9.21107 35.5664,-20.45621 -4.19459,0.0321 -8.35153,0.12854 -12.34375,0.0709 -34.74859,-0.50201 -70.23375,3.91879 -102.94531,14.74023 -22.79417,7.54061 -46.18677,0.51146 -69.03515,-1.47092 -21.72406,-1.88482 -57.15686,0.131 -74.50391,-11.44062 -8.43491,-5.62663 -14.65556,-17.7249 -21.44727,-26.8895 z"
       id="path6328"
       inkscape:connector-curvature="0" />
    <path
       style="font-style:normal;font-variant:normal;font-weight:normal;font-stretch:normal;font-size:medium;line-height:125%;font-family:Forte;-inkscape-font-specification:'Forte, Normal';text-align:start;letter-spacing:0px;word-spacing:0px;writing-mode:lr-tb;text-anchor:start;opacity:0.1;fill:#1a1a1a;fill-opacity:1;stroke:none;stroke-width:1px;stroke-linecap:butt;stroke-linejoin:miter;stroke-opacity:1"
       d="m 312.64391,195.69792 c -3.26938,0 -6.46793,0.22698 -9.59476,0.68085 -3.10587,0.42362 -5.5435,0.99862 -7.3122,1.72483 -1.37588,0.51438 -2.32921,1.40546 -2.85816,2.67631 -0.508,1.24059 -0.48331,2.45111 0.0701,3.63119 0.26962,0.57491 0.69008,1.05911 1.26125,1.45248 0.57118,0.39336 1.15373,0.59007 1.75135,0.59007 0.49217,0 1.30696,-0.21185 2.44416,-0.63546 0.91951,-0.3631 1.74819,-0.62033 2.4858,-0.77163 0.72341,-0.18155 1.66529,-0.27233 2.8254,-0.27233 l 0.007,1.58864 1.96295,24.64671 0.29653,2.76878 0.24205,2.54015 c 0.64495,6.17273 1.1589,10.45492 1.54169,12.84534 0.41797,2.39043 0.91792,4.20619 1.49973,5.44679 0.52505,1.11956 1.28821,1.99718 2.28931,2.63261 1.02204,0.60517 2.14844,0.9078 3.37886,0.9078 1.86319,0 3.85632,-0.46907 5.98269,-1.40709 2.14735,-0.96826 3.76695,-2.08799 4.85837,-3.35885 0.60054,-0.96828 1.0007,-1.95181 1.20035,-2.95035 0.44737,-2.26938 0.16295,-6.3246 -0.85325,-12.16448 -0.64017,-3.38895 -1.00464,-5.77803 -1.09494,-7.16993 l -0.342,-3.54041 -2.22666,-20.15311 c 2.85331,1.36164 5.17688,2.90504 6.97007,4.62977 1.79318,1.72474 3.2718,3.828 4.4354,6.30919 1.22038,2.60224 1.84871,4.84168 1.88481,6.71771 0.0713,1.87603 -0.38181,3.6464 -1.35907,5.31061 -0.92306,1.1801 -2.02979,2.1939 -3.31988,3.04114 -1.45781,1.0893 -2.37938,2.01063 -2.76286,2.76709 -0.39767,0.7262 -0.39785,1.51304 -5.5e-4,2.36028 0.25543,0.54465 0.93249,1.01372 2.03098,1.40708 1.11946,0.3631 2.29457,0.54468 3.52497,0.54468 2.88268,0 5.75948,-0.65065 8.62959,-1.95176 2.89109,-1.33137 5.0313,-2.94875 6.42234,-4.85504 1.20238,-1.63395 2.0764,-3.63129 2.6218,-5.99146 0.54542,-2.36017 0.69334,-4.78119 0.44378,-7.26238 -0.21443,-2.4812 -0.79003,-4.72065 -1.72659,-6.71771 -1.03591,-2.20887 -2.48983,-4.297 -4.36139,-6.26381 -1.83639,-1.96679 -3.96385,-3.69177 -6.38176,-5.17443 -2.41791,-1.48268 -5.00114,-2.72177 -7.75448,-3.7203 -2.75333,-0.99853 -5.71335,-1.72484 -8.87917,-2.17872 -3.13069,-0.45387 -6.54214,-0.68085 -10.23337,-0.68085 z m 62.16992,0 c -2.84752,0 -4.83596,0.74145 -5.96867,2.22412 -0.32801,0.5749 -0.67347,1.37519 -1.03471,2.40397 -0.6267,3.08637 -0.4884,9.15406 0.41486,18.20134 0.48179,4.17568 0.76416,6.91445 0.84703,8.21558 -1.07433,0.33284 -1.99944,1.05915 -2.77513,2.17871 -0.77567,1.11957 -1.26954,2.39059 -1.48144,3.81275 -0.19096,1.39189 -0.0247,2.64611 0.50037,3.76569 0.73789,1.57342 2.58458,2.58723 5.53949,3.04111 0.0954,2.60223 0.36732,5.35615 0.81558,8.26097 0.43408,2.87456 0.91369,4.87189 1.43874,5.99146 0.72371,1.54318 2.11089,2.81422 4.16112,3.81275 2.03606,0.96827 4.35514,1.45248 6.95658,1.45248 3.26938,0 5.62829,-0.89276 7.07612,-2.67801 0.34154,-0.69595 0.55025,-1.22554 0.62604,-1.58865 0.39318,-1.78525 0.1979,-5.53783 -0.58572,-11.25669 -0.13835,-1.11956 -0.27574,-2.01231 -0.41216,-2.678 l -0.35023,-2.99573 18.93065,0.22695 c 0.0803,0.69595 0.15883,1.80054 0.23556,3.31345 0.54949,6.86869 1.33519,11.39298 2.3569,13.57159 0.596,1.27086 1.53191,2.2544 2.80747,2.95035 1.27555,0.69593 2.73966,1.04396 4.39193,1.04396 1.44133,0 3.08884,-0.34803 4.94206,-1.04396 1.83899,-0.72622 3.33991,-1.64923 4.50229,-2.76879 0.53215,-0.5144 0.92682,-1.13479 1.18388,-1.86099 0.17997,-0.66568 0.289,-1.48279 0.32708,-2.45106 0.059,-0.99853 0.0637,-2.37548 0.0141,-4.13047 -0.0638,-1.78525 -0.13816,-3.55563 -0.22297,-5.31063 -0.0754,-1.21033 -0.0966,-2.04256 -0.0633,-2.49644 l -0.12964,-0.72624 c 1.97413,-0.3631 3.25051,-0.71112 3.83268,-1.04396 0.58892,-0.39335 1.19161,-1.05746 1.80634,-1.99548 0.6357,-0.96826 1.13731,-2.07286 1.50468,-3.31346 0.36737,-1.24059 0.39497,-2.19387 0.083,-2.85956 -0.46828,-0.99852 -1.39984,-1.78535 -2.79441,-2.36028 -1.40874,-0.60516 -3.08012,-0.9078 -5.01362,-0.9078 -0.14062,0 -0.25658,0.0151 -0.34785,0.0454 -0.10546,0 -0.22143,0.0151 -0.34785,0.0454 -0.0155,-0.33285 -0.0264,-1.25585 -0.0329,-2.76879 0.0131,-10.16684 -0.88166,-17.17268 -2.68385,-21.01551 -1.9157,-4.0849 -5.61534,-6.12596 -11.09946,-6.12596 -3.19907,0 -5.30654,0.8625 -6.32573,2.58723 -0.44702,0.69593 -0.78442,1.73832 -1.01053,3.13022 -0.2261,1.39189 -0.34579,3.01095 -0.35901,4.85672 0.008,1.8155 0.12348,4.23653 0.34729,7.26238 0.20957,2.99559 0.49324,6.037 0.85089,9.12337 l 0.39183,2.85955 -19.2887,0.36313 0.0406,-0.36313 c -0.0155,-0.33284 -0.0452,-0.69599 -0.089,-1.08935 -0.0229,-0.42362 -0.0489,-0.74137 -0.0779,-0.95318 -0.96127,-12.76909 -1.84644,-20.01703 -2.6553,-21.74176 -0.5818,-1.24059 -1.45402,-2.31325 -2.61798,-3.22101 -1.143,-0.93801 -2.52083,-1.66432 -4.13309,-2.17871 -1.5913,-0.54465 -3.26605,-0.81702 -5.02378,-0.81702 z m 82.94726,0 c -3.26938,0 -6.46598,0.22698 -9.5928,0.68085 -3.10588,0.42362 -5.54351,0.99862 -7.3122,1.72483 -1.37588,0.51438 -2.32921,1.40546 -2.85816,2.67631 -0.508,1.24059 -0.48526,2.45111 0.0682,3.63119 0.26962,0.57491 0.69008,1.05911 1.26125,1.45248 0.57119,0.39336 1.15568,0.59007 1.7533,0.59007 0.49216,0 1.30696,-0.21185 2.44416,-0.63546 0.91951,-0.3631 1.74819,-0.62033 2.4858,-0.77163 0.72342,-0.18155 1.6653,-0.27233 2.8254,-0.27233 l 0.007,1.58864 1.96099,24.64671 0.29654,2.76878 0.24205,2.54015 c 0.64495,6.17273 1.15889,10.45492 1.54169,12.84534 0.41797,2.39043 0.91791,4.20619 1.49972,5.44679 0.52505,1.11956 1.28822,1.99718 2.28932,2.63261 1.02203,0.60517 2.14844,0.9078 3.37886,0.9078 1.86319,0 3.85826,-0.46907 5.98464,-1.40709 2.14734,-0.96826 3.76695,-2.08799 4.85837,-3.35885 0.60054,-0.96828 1.0007,-1.95181 1.20035,-2.95035 0.44738,-2.26938 0.16295,-6.3246 -0.85325,-12.16448 -0.64017,-3.38895 -1.00464,-5.77803 -1.09493,-7.16993 l -0.34396,-3.54041 -2.22666,-20.15311 c 2.85331,1.36164 5.17688,2.90504 6.97007,4.62977 1.79318,1.72474 3.2718,3.828 4.4354,6.30919 1.22038,2.60224 1.8487,4.84168 1.88481,6.71771 0.0712,1.87603 -0.38182,3.6464 -1.35907,5.31061 -0.92307,1.1801 -2.0298,2.1939 -3.31989,3.04114 -1.4578,1.0893 -2.37937,2.01063 -2.76285,2.76709 -0.39767,0.7262 -0.3959,1.51304 0.001,2.36028 0.25543,0.54465 0.93053,1.01372 2.02903,1.40708 1.11945,0.3631 2.29456,0.54468 3.52497,0.54468 2.88268,0 5.75948,-0.65065 8.62959,-1.95176 2.89109,-1.33137 5.03325,-2.94875 6.42429,-4.85504 1.20238,-1.63395 2.0764,-3.63129 2.6218,-5.99146 0.54542,-2.36017 0.69334,-4.78119 0.44378,-7.26238 -0.21443,-2.4812 -0.79003,-4.72065 -1.72659,-6.71771 -1.03591,-2.20887 -2.48983,-4.297 -4.36139,-6.26381 -1.83639,-1.96679 -3.96385,-3.69177 -6.38175,-5.17443 -2.41791,-1.48268 -5.00311,-2.72177 -7.75644,-3.7203 -2.75334,-0.99853 -5.71335,-1.72484 -8.87918,-2.17872 -3.13069,-0.45387 -6.54214,-0.68085 -10.23337,-0.68085 z"
       id="path4165-0"
       inkscape:connector-curvature="0" />
    <path
       style="opacity:0.27399998;fill:#fff6d5;fill-opacity:1;fill-rule:evenodd;stroke:none;stroke-width:1px;stroke-linecap:butt;stroke-linejoin:miter;stroke-opacity:1"
       d="m 365.94857,169.28379 c -14.22143,-0.11537 -27.72998,0.94919 -41.92928,5.54999 -13.76719,4.46079 20.40164,3.1505 38.91221,1.9787 12.71409,-0.80488 44.12601,1.86223 65.82103,5.30737 13.1361,2.08599 26.61272,1.51859 39.92537,0.39524 12.22605,-1.03164 24.39655,0.48745 36.09422,2.67446 7.89431,1.47593 16.75789,-2.64431 6.26082,-4.50905 -18.83901,-3.34665 -38.99009,-1.02334 -57.96201,-1.81925 -22.73552,-0.9538 -45.26698,-3.83689 -67.42166,-8.12433 -6.42929,-1.24421 -13.10237,-1.39965 -19.7007,-1.45313 z"
       id="path4218"
       inkscape:connector-curvature="0"
       sodipodi:nodetypes="ssssssssss" />
    <path
       style="font-style:normal;font-variant:normal;font-weight:normal;font-stretch:normal;font-size:medium;line-height:125%;font-family:Forte;-inkscape-font-specification:'Forte, Normal';text-align:start;letter-spacing:0px;word-spacing:0px;writing-mode:lr-tb;text-anchor:start;opacity:1;fill:#ffe680;fill-opacity:1;stroke:none;stroke-width:1px;stroke-linecap:butt;stroke-linejoin:miter;stroke-opacity:1"
       d="m 313.60064,187.93466 c -3.26938,0 -6.45993,0.22777 -9.57422,0.68164 -3.09415,0.42362 -5.51699,0.9984 -7.26562,1.72461 -1.36166,0.51438 -2.28939,1.40493 -2.7832,2.67578 -0.33988,0.89011 -0.21674,1.74005 -0.18946,2.62305 0.0214,0.6931 0.003,1.32246 0,1.99805 -0.003,0.70798 0.0351,1.34884 0.008,2.03906 -0.041,1.03652 -0.13004,2.00093 0.35157,2.9707 0.28551,0.57491 0.71873,1.05976 1.30078,1.45313 0.58206,0.39336 1.16996,0.58984 1.76758,0.58984 0.49217,0 1.30224,-0.21117 2.42773,-0.63476 0.90947,-0.36311 1.72947,-0.62019 2.46289,-0.77149 0.71839,-0.18155 1.65825,-0.27344 2.81836,-0.27344 l 0.0508,1.58985 2.64453,24.64648 0.37305,2.76758 0.3125,2.54102 c 0.8156,6.17273 1.44759,10.45528 1.89649,12.8457 0.48403,2.39043 1.03428,4.20666 1.65039,5.44726 0.556,1.11956 1.34266,1.99543 2.36132,2.63086 1.03878,0.60517 2.17388,0.90821 3.4043,0.90821 1.86319,0 3.84487,-0.46823 5.94531,-1.40625 2.12058,-0.96826 3.70736,-2.08852 4.76368,-3.35938 0.57377,-0.96828 0.9471,-1.95263 1.11914,-2.95117 0.13469,-0.79472 0.16822,-1.82006 0.11132,-3.05273 0.0359,-0.59046 0.035,-1.26289 0,-2.01563 -2.8e-4,-0.006 3e-4,-0.0114 0,-0.0176 0.0337,-0.57667 0.0332,-1.2331 0,-1.96289 0.14559,-2.38108 -0.28573,-6.08171 -1.30078,-11.11523 -0.73385,-3.38895 -1.1642,-5.77802 -1.29297,-7.16993 l -0.43945,-3.53906 -1.89062,-13.68945 c 2.47589,1.24766 4.56509,2.62949 6.20507,4.16601 1.84086,1.72474 3.37718,3.82741 4.60938,6.3086 0.76811,1.54668 1.30491,2.95289 1.64062,4.23828 -0.1969,0.60953 -0.45476,1.20561 -0.78125,1.78906 -0.89044,1.1801 -1.96965,2.19378 -3.23632,3.04102 -1.42769,1.0893 -2.32493,2.01112 -2.6875,2.76758 -0.33777,0.64958 -0.0439,1.29282 -0.0371,2.09765 0.006,0.686 0.003,1.23359 0,1.99805 -0.003,0.68742 0.0222,1.23626 0,2.00195 -0.0224,0.7719 -0.30066,1.45369 0.10156,2.26367 0.27049,0.54465 0.96095,1.01289 2.07031,1.40625 1.1295,0.3631 2.31062,0.54493 3.54102,0.54493 2.88268,0 5.74008,-0.65007 8.57422,-1.95118 2.85428,-1.33137 4.95072,-2.94917 6.28906,-4.85546 1.15721,-1.63395 1.97688,-3.63202 2.45703,-5.99219 0.35961,-1.76761 0.49443,-3.56872 0.40625,-5.4043 -1.3e-4,-0.003 1.3e-4,-0.005 0,-0.008 0.0268,-0.64576 0.0244,-1.29529 -0.004,-1.94922 0.0288,-0.65785 0.028,-1.32005 0,-1.98633 0.0572,-1.2882 0.009,-2.59157 -0.16015,-3.91406 -0.28303,-2.4812 -0.92033,-4.72169 -1.91211,-6.71875 -1.09697,-2.20887 -2.60922,-4.29686 -4.53516,-6.26367 -1.89076,-1.96679 -4.06649,-3.69117 -6.52539,-5.17383 -2.4589,-1.48268 -5.07453,-2.72217 -7.85547,-3.7207 -2.78094,-0.99853 -5.76107,-1.72386 -8.93945,-2.17774 -3.14323,-0.45387 -6.56268,-0.68164 -10.25391,-0.68164 z m 62.16992,0 c -2.84752,0 -4.81453,0.74194 -5.90625,2.22461 -0.31212,0.5749 -0.63595,1.37552 -0.96875,2.4043 -0.21458,1.22334 -0.28996,2.93374 -0.23828,5.09375 -0.013,0.69464 -0.0152,1.43085 0.008,2.25195 -0.007,0.50286 -0.0271,0.95848 -0.0156,1.52734 1.1e-4,0.006 -1.1e-4,0.0121 0,0.0176 -0.0866,3.43256 0.30039,8.5358 1.16406,15.31055 0.16388,1.14581 0.23911,1.75761 0.33985,2.52539 -0.75204,0.39643 -1.4139,1.01741 -1.98047,1.86914 -0.74472,1.11957 -1.20241,2.39034 -1.375,3.8125 -0.0714,0.65169 0.0447,1.26412 0.0254,1.86133 -0.0219,0.67728 0.0353,1.40821 0,2 -0.0403,0.67644 -0.0283,1.40781 -0.002,2 0.0551,1.23966 0.0528,2.76395 0.58011,3.9043 0.78139,1.57342 2.65559,2.58713 5.62305,3.04101 0.16737,2.60223 0.51635,5.3569 1.04492,8.26172 0.51354,2.87456 1.04752,4.87066 1.60352,5.99023 0.76637,1.54318 2.18974,2.81397 4.26758,3.8125 2.06282,0.96827 4.39465,1.45313 6.99609,1.45313 3.26938,0 5.60348,-0.89249 7.00195,-2.67773 0.3223,-0.69595 0.51627,-1.22674 0.58203,-1.58985 0.1329,-0.69003 0.1666,-1.68119 0.10743,-2.95898 0.034,-0.54097 0.03,-1.20077 -0.002,-1.94336 0.0371,-0.54812 0.0324,-1.22363 0,-1.98438 0.13546,-1.96015 -0.18621,-5.31598 -0.95117,-10.03125 l 17.9668,0.21485 c 0.0995,0.69595 0.20956,1.80154 0.32812,3.31445 0.73937,6.86869 1.64853,11.3917 2.73047,13.57031 0.63114,1.27086 1.59584,2.25522 2.89063,2.95117 1.2948,0.69593 2.76765,1.04493 4.41992,1.04493 1.44133,0 3.08009,-0.349 4.91406,-1.04493 1.81892,-0.72622 3.29435,-1.64997 4.42578,-2.76953 0.51794,-0.5144 0.89387,-1.13317 1.13086,-1.85937 0.16156,-0.66568 0.24846,-1.4829 0.25977,-2.45117 0.0164,-0.52087 0.013,-1.15803 -0.006,-1.88477 7.6e-4,-0.0411 0.005,-0.0735 0.006,-0.11523 0.0164,-0.52126 0.0129,-1.15722 -0.006,-1.88477 7.6e-4,-0.0411 0.005,-0.0735 0.006,-0.11523 0.0164,-0.52126 0.0129,-1.15722 -0.006,-1.88477 7.6e-4,-0.0411 0.005,-0.0735 0.006,-0.11523 0.0314,-0.99853 -0.002,-2.37587 -0.0996,-4.13086 -0.0562,-0.88575 -0.12248,-1.75641 -0.1836,-2.63477 1.66263,-0.32638 2.81714,-0.64198 3.33594,-0.94336 0.57805,-0.39335 1.1612,-1.05612 1.75,-1.99414 0.60893,-0.96826 1.08098,-2.07385 1.41406,-3.31445 0.28368,-1.05661 0.12886,-1.86201 0.11329,-2.53125 -0.0193,-0.82849 0.002,-1.45748 0.002,-2.01172 -2.2e-4,-0.82208 -0.0129,-1.44713 0,-1.99805 0.0232,-0.99341 0.16804,-1.75532 -0.11133,-2.31836 -0.49588,-0.99852 -1.44891,-1.78444 -2.85937,-2.35937 -1.42548,-0.60516 -3.10557,-0.90821 -5.03907,-0.90821 -0.14062,0 -0.25721,0.0146 -0.34765,0.0449 -0.10546,0 -0.22012,0.0146 -0.34571,0.0449 -0.0247,-0.33285 -0.0611,-1.25464 -0.10937,-2.76758 -0.26802,-10.16684 -1.3572,-17.1728 -3.26563,-21.01562 -2.02863,-4.08491 -5.78345,-6.12696 -11.26757,-6.12696 -3.19907,0 -5.28241,0.86316 -6.25391,2.58789 -0.42778,0.69593 -0.7362,1.73701 -0.92383,3.12891 -0.18762,1.39189 -0.26434,3.01165 -0.22656,4.85742 0.003,0.0943 0.0159,0.23251 0.0195,0.33008 -0.0114,0.54615 -0.0317,1.07708 -0.0195,1.66992 0.003,0.0943 0.0159,0.23251 0.0195,0.33008 -0.0114,0.54615 -0.0317,1.07708 -0.0195,1.66992 0.003,0.0943 0.0159,0.23251 0.0195,0.33008 -0.0111,0.54642 -0.0317,1.07663 -0.0195,1.66992 0.0579,1.8155 0.24138,4.23587 0.54883,7.26172 0.19287,1.97591 0.43555,3.98223 0.69726,6 l -18.40234,0.34766 0.0312,-0.36329 c -0.0247,-0.33284 -0.0644,-0.69648 -0.11914,-1.08984 -0.0346,-0.42362 -0.0687,-0.74131 -0.10352,-0.95312 -1.31427,-12.76909 -2.40127,-20.01746 -3.25781,-21.74219 -0.6161,-1.24059 -1.51797,-2.31295 -2.70703,-3.2207 -1.16893,-0.93801 -2.56688,-1.66335 -4.19336,-2.17774 -1.60635,-0.54465 -3.28719,-0.81836 -5.04492,-0.81836 z m 82.94727,0 c -3.26938,0 -6.45799,0.22777 -9.57227,0.68164 -3.09416,0.42362 -5.517,0.9984 -7.26562,1.72461 -1.36166,0.51438 -2.28939,1.40493 -2.7832,2.67578 -0.34042,0.89153 -0.21723,1.74254 -0.18946,2.62696 0.0218,0.69339 0.003,1.32199 0,1.99804 -0.003,0.70841 0.0328,1.34841 0.006,2.03907 -0.0402,1.03497 -0.12939,1.99833 0.35157,2.96679 0.2855,0.57491 0.71873,1.05976 1.30078,1.45313 0.58207,0.39336 1.17191,0.58984 1.76953,0.58984 0.49216,0 1.30224,-0.21117 2.42773,-0.63476 0.90947,-0.36311 1.72947,-0.62019 2.46289,-0.77149 0.7184,-0.18155 1.65826,-0.27344 2.81836,-0.27344 l 0.0508,1.58985 2.64258,24.64648 0.37305,2.76758 0.3125,2.54102 c 0.8156,6.17273 1.44759,10.45528 1.89648,12.8457 0.48404,2.39043 1.03428,4.20666 1.65039,5.44726 0.556,1.11956 1.34462,1.99543 2.36328,2.63086 1.03877,0.60517 2.17193,0.90821 3.40235,0.90821 1.86319,0 3.84681,-0.46823 5.94726,-1.40625 2.12057,-0.96826 3.70739,-2.08852 4.76368,-3.35938 0.57377,-0.96828 0.9471,-1.95263 1.11914,-2.95117 0.13469,-0.79472 0.16822,-1.82006 0.11132,-3.05273 0.0359,-0.59046 0.035,-1.26289 0,-2.01563 -2.8e-4,-0.006 3e-4,-0.0114 0,-0.0176 0.0337,-0.57667 0.0331,-1.2331 0,-1.96289 0.1456,-2.38108 -0.28573,-6.08171 -1.30078,-11.11523 -0.73385,-3.38895 -1.16421,-5.77802 -1.29297,-7.16993 l -0.4414,-3.53906 -1.89063,-13.68945 c 2.4759,1.24766 4.56508,2.62949 6.20508,4.16601 1.84086,1.72474 3.37718,3.82741 4.60938,6.3086 0.76811,1.54668 1.30491,2.95289 1.64062,4.23828 -0.1969,0.60953 -0.45477,1.20561 -0.78125,1.78906 -0.89045,1.1801 -1.96966,2.19378 -3.23633,3.04102 -1.42768,1.0893 -2.32493,2.01112 -2.6875,2.76758 -0.33719,0.64849 -0.0404,1.29069 -0.0352,2.09375 0.004,0.68715 0.003,1.23476 0,2 -0.003,0.68716 -0.004,1.31351 0,2 0.005,0.77401 -0.29952,1.45604 0.10351,2.26757 0.27049,0.54465 0.95704,1.01289 2.06641,1.40625 1.12949,0.3631 2.3106,0.54493 3.54101,0.54493 2.88268,0 5.74204,-0.65007 8.57618,-1.95118 2.85428,-1.33137 4.95072,-2.94917 6.28906,-4.85546 1.15721,-1.63395 1.97688,-3.63202 2.45703,-5.99219 0.35961,-1.76761 0.49443,-3.56872 0.40625,-5.4043 -1.3e-4,-0.003 1.3e-4,-0.005 0,-0.008 0.0268,-0.64576 0.0244,-1.29529 -0.004,-1.94922 0.0288,-0.65785 0.028,-1.32005 0,-1.98633 0.0572,-1.2882 0.009,-2.59157 -0.16015,-3.91406 -0.28303,-2.4812 -0.92033,-4.72169 -1.91211,-6.71875 -1.09697,-2.20887 -2.60922,-4.29686 -4.53516,-6.26367 -1.89076,-1.96679 -4.0665,-3.69117 -6.52539,-5.17383 -2.4589,-1.48268 -5.07649,-2.72217 -7.85742,-3.7207 -2.78095,-0.99853 -5.76106,-1.72386 -8.93945,-2.17774 -3.14323,-0.45387 -6.56268,-0.68164 -10.25391,-0.68164 z"
       id="path4261"
       inkscape:connector-curvature="0"
       sodipodi:nodetypes="scccsssscsccccccccscscccccccccccssccccsssccsccscccccscsscssscccccccsccsssccscsccccccccscsccccccccccccccscssscscccsscscccccccccccccsccsssccccssscsccccccccscscccccccccccsscccccsssssccscccccscsscscc" />
    <path
       style="font-style:normal;font-variant:normal;font-weight:normal;font-stretch:normal;font-size:medium;line-height:125%;font-family:Forte;-inkscape-font-specification:'Forte, Normal';text-align:start;letter-spacing:0px;word-spacing:0px;writing-mode:lr-tb;text-anchor:start;opacity:1;fill:#ffdd55;fill-opacity:1;stroke:none;stroke-width:1px;stroke-linecap:butt;stroke-linejoin:miter;stroke-opacity:1"
       d="m 313.60145,185.93503 c -3.26938,0 -6.46165,0.22698 -9.57594,0.68085 -3.09415,0.42362 -5.51588,0.99862 -7.26451,1.72483 -1.36166,0.51438 -2.29036,1.40546 -2.78417,2.67631 -0.4737,1.24059 -0.41555,2.45111 0.1705,3.63119 0.28551,0.57491 0.71935,1.05911 1.3014,1.45248 0.58206,0.39336 1.17004,0.59007 1.76766,0.59007 0.49217,0 1.30111,-0.21185 2.4266,-0.63546 0.90947,-0.3631 1.73104,-0.62033 2.46446,-0.77163 0.71839,-0.18155 1.65776,-0.27233 2.81787,-0.27233 l 0.0507,1.58864 2.64433,24.64671 0.37307,2.76878 0.31227,2.54015 c 0.8156,6.17273 1.44794,10.45492 1.89682,12.84534 0.48404,2.39043 1.03419,4.20619 1.6503,5.44679 0.556,1.11956 1.34343,1.99718 2.36209,2.63261 1.03878,0.60517 2.17354,0.9078 3.40396,0.9078 1.86319,0 3.84335,-0.46907 5.94379,-1.40709 2.12058,-0.96826 3.70923,-2.08799 4.76552,-3.35885 0.57377,-0.96828 0.94674,-1.95181 1.11878,-2.95035 0.38463,-2.26938 -0.0119,-6.3246 -1.18955,-12.16448 -0.73385,-3.38895 -1.16438,-5.77803 -1.29315,-7.16993 l -0.43988,-3.54041 -2.78381,-20.15311 c 2.89096,1.36164 5.2572,2.90504 7.09807,4.62977 1.84086,1.72474 3.37762,3.828 4.60982,6.30919 1.29232,2.60224 1.98256,4.84168 2.07052,6.71771 0.12312,1.87603 -0.281,3.6464 -1.21225,5.31061 -0.89044,1.1801 -1.96914,2.1939 -3.23581,3.04114 -1.42769,1.0893 -2.32379,2.01063 -2.68636,2.76709 -0.3776,0.7262 -0.35602,1.51304 0.0647,2.36028 0.27049,0.54465 0.96052,1.01372 2.06988,1.40708 1.1295,0.3631 2.30963,0.54468 3.54003,0.54468 2.88268,0 5.74149,-0.65065 8.57563,-1.95176 2.85428,-1.33137 4.94978,-2.94875 6.28812,-4.85504 1.15721,-1.63395 1.97601,-3.63129 2.45616,-5.99146 0.48017,-2.36017 0.56116,-4.78119 0.24297,-7.26238 -0.28303,-2.4812 -0.92053,-4.72065 -1.91231,-6.71771 -1.09697,-2.20887 -2.60862,-4.297 -4.53456,-6.26381 -1.89076,-1.96679 -4.0659,-3.69177 -6.5248,-5.17443 -2.4589,-1.48268 -5.07639,-2.72177 -7.85733,-3.7203 -2.78094,-0.99853 -5.76103,-1.72484 -8.93941,-2.17872 -3.14323,-0.45387 -6.56096,-0.68085 -10.25219,-0.68085 z m 62.16992,0 c -2.84752,0 -4.81546,0.74145 -5.90718,2.22412 -0.31212,0.5749 -0.63545,1.37519 -0.96825,2.40397 -0.54137,3.08637 -0.23533,9.15406 0.91805,18.20134 0.59722,4.17568 0.95531,6.91445 1.07415,8.21558 -1.06512,0.33284 -1.97016,1.05915 -2.71489,2.17871 -0.74472,1.11957 -1.20345,2.39059 -1.37604,3.81275 -0.15248,1.39189 0.0485,2.64611 0.60448,3.76569 0.78139,1.57342 2.6561,2.58723 5.62356,3.04111 0.16737,2.60223 0.51539,5.35615 1.04396,8.26097 0.51354,2.87456 1.04838,4.87189 1.60438,5.99146 0.76637,1.54318 2.18869,2.81422 4.26653,3.81275 2.06282,0.96827 4.39529,1.45248 6.99673,1.45248 3.26938,0 5.60361,-0.89276 7.00208,-2.67801 0.3223,-0.69595 0.51637,-1.22554 0.58213,-1.58865 0.34382,-1.78525 0.0448,-5.53783 -0.89692,-11.25669 -0.1693,-1.11956 -0.33138,-2.01231 -0.4862,-2.678 l -0.43305,-2.99573 18.93693,0.22695 c 0.0995,0.69595 0.2086,1.80054 0.32716,3.31345 0.73937,6.86869 1.65015,11.39298 2.73209,13.57159 0.63114,1.27086 1.59424,2.2544 2.88903,2.95035 1.2948,0.69593 2.76853,1.04396 4.4208,1.04396 1.44133,0 3.07922,-0.34803 4.91319,-1.04396 1.81892,-0.72622 3.29432,-1.64923 4.42575,-2.76879 0.51794,-0.5144 0.89545,-1.13479 1.13244,-1.86099 0.16156,-0.66568 0.248,-1.48279 0.25931,-2.45106 0.0314,-0.99853 -0.002,-2.37548 -0.1001,-4.13047 -0.11319,-1.78525 -0.23646,-3.55563 -0.36978,-5.31063 -0.1089,-1.21033 -0.15304,-2.04256 -0.13236,-2.49644 l -0.14972,-0.72624 c 1.9641,-0.3631 3.23086,-0.71112 3.80382,-1.04396 0.57805,-0.39335 1.16238,-1.05746 1.75118,-1.99548 0.60893,-0.96826 1.08,-2.07286 1.41308,-3.31346 0.33307,-1.24059 0.33431,-2.19387 0.004,-2.85956 -0.49588,-0.99852 -1.4492,-1.78535 -2.85966,-2.36028 -1.42548,-0.60516 -3.10522,-0.9078 -5.03872,-0.9078 -0.14062,0 -0.25616,0.0151 -0.3466,0.0454 -0.10546,0 -0.221,0.0151 -0.34659,0.0454 -0.0247,-0.33285 -0.0611,-1.25585 -0.1094,-2.76879 -0.26802,-10.16684 -1.35641,-17.17268 -3.26484,-21.01551 -2.02863,-4.0849 -5.7847,-6.12596 -11.26882,-6.12596 -3.19907,0 -5.2827,0.8625 -6.2542,2.58723 -0.42778,0.69593 -0.73636,1.73832 -0.92399,3.13022 -0.18762,1.39189 -0.26256,3.01095 -0.22478,4.85672 0.0579,1.8155 0.2406,4.23653 0.54805,7.26238 0.2924,2.99559 0.66014,6.037 1.10311,9.12337 l 0.47089,2.85955 -19.27866,0.36313 0.0306,-0.36313 c -0.0247,-0.33284 -0.0644,-0.69599 -0.11911,-1.08935 -0.0346,-0.42362 -0.0694,-0.74137 -0.10424,-0.95318 -1.31427,-12.76909 -2.39982,-20.01703 -3.25636,-21.74176 -0.6161,-1.24059 -1.51797,-2.31325 -2.70703,-3.22101 -1.16893,-0.93801 -2.56684,-1.66432 -4.19332,-2.17871 -1.60635,-0.54465 -3.28864,-0.81702 -5.04637,-0.81702 z m 82.94726,0 c -3.26938,0 -6.4597,0.22698 -9.57398,0.68085 -3.09416,0.42362 -5.51589,0.99862 -7.26451,1.72483 -1.36166,0.51438 -2.29036,1.40546 -2.78417,2.67631 -0.4737,1.24059 -0.4175,2.45111 0.16855,3.63119 0.28551,0.57491 0.71935,1.05911 1.3014,1.45248 0.58207,0.39336 1.17199,0.59007 1.76961,0.59007 0.49216,0 1.30111,-0.21185 2.4266,-0.63546 0.90947,-0.3631 1.73104,-0.62033 2.46446,-0.77163 0.7184,-0.18155 1.65777,-0.27233 2.81787,-0.27233 l 0.0507,1.58864 2.64237,24.64671 0.37308,2.76878 0.31227,2.54015 c 0.8156,6.17273 1.44793,10.45492 1.89682,12.84534 0.48404,2.39043 1.03418,4.20619 1.65029,5.44679 0.556,1.11956 1.34344,1.99718 2.3621,2.63261 1.03877,0.60517 2.17354,0.9078 3.40396,0.9078 1.86319,0 3.84529,-0.46907 5.94574,-1.40709 2.12057,-0.96826 3.70923,-2.08799 4.76552,-3.35885 0.57377,-0.96828 0.94674,-1.95181 1.11878,-2.95035 0.38464,-2.26938 -0.0119,-6.3246 -1.18955,-12.16448 -0.73385,-3.38895 -1.16438,-5.77803 -1.29314,-7.16993 l -0.44184,-3.54041 -2.78381,-20.15311 c 2.89096,1.36164 5.2572,2.90504 7.09807,4.62977 1.84086,1.72474 3.37762,3.828 4.60982,6.30919 1.29232,2.60224 1.98255,4.84168 2.07052,6.71771 0.12311,1.87603 -0.28101,3.6464 -1.21225,5.31061 -0.89045,1.1801 -1.96915,2.1939 -3.23582,3.04114 -1.42768,1.0893 -2.32378,2.01063 -2.68635,2.76709 -0.3776,0.7262 -0.35407,1.51304 0.0667,2.36028 0.27049,0.54465 0.95856,1.01372 2.06793,1.40708 1.12949,0.3631 2.30962,0.54468 3.54003,0.54468 2.88268,0 5.74149,-0.65065 8.57563,-1.95176 2.85428,-1.33137 4.95173,-2.94875 6.29007,-4.85504 1.15721,-1.63395 1.97601,-3.63129 2.45616,-5.99146 0.48017,-2.36017 0.56116,-4.78119 0.24297,-7.26238 -0.28303,-2.4812 -0.92053,-4.72065 -1.91231,-6.71771 -1.09697,-2.20887 -2.60862,-4.297 -4.53456,-6.26381 -1.89076,-1.96679 -4.0659,-3.69177 -6.52479,-5.17443 -2.4589,-1.48268 -5.07836,-2.72177 -7.85929,-3.7203 -2.78095,-0.99853 -5.76103,-1.72484 -8.93942,-2.17872 -3.14323,-0.45387 -6.56096,-0.68085 -10.25219,-0.68085 z"
       id="path4165"
       inkscape:connector-curvature="0" />
    <path
       style="opacity:0.4;fill:#fff6d5;fill-opacity:1;fill-rule:evenodd;stroke:none;stroke-width:1px;stroke-linecap:butt;stroke-linejoin:miter;stroke-opacity:1"
       d="m 308.125,188.36218 c -1.87728,1.25575 1.86882,3.62755 3.83933,3.68333 6.80764,0.1927 13.6116,1.3679 20.10267,3.45912 2.90478,0.93583 5.88622,2.00974 8.29435,3.91694 3.31117,2.62239 6.04231,12.30686 8.76511,9.06221 3.7404,-4.45728 -4.82141,-10.38668 -9.23423,-13.84977 -2.87297,-2.25465 -6.09723,-4.17806 -9.76723,-4.75329 -3.77156,-0.59115 -7.52775,-1.27357 -11.294,-1.89501 -3.53923,-0.58398 -7.7328,-1.61237 -10.706,0.37647 z"
       id="path4275"
       inkscape:connector-curvature="0"
       sodipodi:nodetypes="sssssssss" />
    <path
       style="opacity:0.4;fill:#fff6d5;fill-opacity:1;fill-rule:evenodd;stroke:none;stroke-width:1px;stroke-linecap:butt;stroke-linejoin:miter;stroke-opacity:1"
       d="m 373.84159,189.21343 c 0.10328,1.32529 1.14732,2.45218 2.46466,2.71365 0.90715,0.18006 1.62364,0.87775 2.35587,1.42516 1.66479,1.24459 3.14737,2.74137 4.41985,4.37562 0.59549,0.76479 1.19034,1.83194 2.1924,1.90855 0.91701,0.0701 0.66542,-1.29721 0.78029,-1.96064 0.39477,-2.28005 -0.76776,-4.51594 -2.1193,-6.29544 -1.13203,-1.49049 -2.95776,-3.01876 -5.53808,-4.09983 -0.97588,-0.40886 -1.74122,-0.40697 -2.9874,0.31684 -0.9499,0.55172 -1.64235,0.66581 -1.56829,1.61609 z"
       id="path4277"
       inkscape:connector-curvature="0"
       sodipodi:nodetypes="ssssssssss" />
    <path
       style="opacity:0.4;fill:#fff6d5;fill-opacity:1;fill-rule:evenodd;stroke:none;stroke-width:1px;stroke-linecap:butt;stroke-linejoin:miter;stroke-opacity:1"
       d="m 418.26563,190.00281 c 1.24087,1.04513 2.54242,1.98274 4.42137,4.08741 1.87895,2.10467 1.42416,7.50775 3.9477,6.2429 2.52354,-1.26485 -1.33564,-6.69429 -3.41237,-8.9199 -2.07673,-2.22561 -7.31314,-5.42483 -7.90393,-3.66863 -0.59079,1.7562 1.70636,1.21309 2.94723,2.25822 z"
       id="path4279"
       inkscape:connector-curvature="0"
       sodipodi:nodetypes="ssssss" />
    <path
       style="opacity:0.4;fill:#fff6d5;fill-opacity:1;fill-rule:evenodd;stroke:none;stroke-width:1px;stroke-linecap:butt;stroke-linejoin:miter;stroke-opacity:1"
       d="m 463.04957,187.96666 c 6.30952,-0.80754 12.03613,1.20259 18.04994,3.93976 4.19238,1.90816 7.51641,5.24837 10.78354,8.41228 0.87709,0.84938 1.28916,3.65827 -0.43197,3.43494 -1.72619,-0.224 -2.79124,-1.98522 -4.14412,-3.02171 -4.02626,-3.0847 -8.58759,-5.4184 -13.60849,-6.65912 -4.83537,-1.19488 -9.63258,-2.83734 -14.62929,-2.68936 -1.12047,0.0331 -3.29278,-2.00214 -1.54065,-2.51461 1.45636,-0.42597 2.32606,-0.49327 3.84136,-0.6872 z"
       id="path4283"
       inkscape:connector-curvature="0"
       sodipodi:nodetypes="ssssssssss" />
    <path
       style="opacity:0.4;fill:#fff6d5;fill-opacity:1;fill-rule:evenodd;stroke:none;stroke-width:1px;stroke-linecap:butt;stroke-linejoin:miter;stroke-opacity:1"
       d="m 321.11487,212.4961 c 0.83226,6.21651 1.46629,12.46193 2.46903,18.65323 0.42669,2.63456 -0.28136,5.88349 1.50844,7.86328 0.52832,0.58441 1.13254,-3.03582 1.1396,-3.82361 0.0223,-2.49091 0.25791,-3.10643 -0.31849,-6.66478 -0.92613,-5.71741 -2.04446,-10.80198 -2.44588,-16.57999 -0.42894,-6.17408 0.17918,-7.69591 -2.58755,-8.2127 -0.59475,-0.11109 -0.8415,0.94984 -0.95366,1.54439 -0.28266,1.49842 0.5812,2.99442 0.82027,4.50041 0.14343,0.90355 0.24684,1.813 0.36824,2.71977 z"
       id="path4384"
       inkscape:connector-curvature="0"
       sodipodi:nodetypes="ssssssssss" />
    <path
       style="opacity:0.4;fill:#fff6d5;fill-opacity:1;fill-rule:evenodd;stroke:none;stroke-width:1px;stroke-linecap:butt;stroke-linejoin:miter;stroke-opacity:1"
       d="m 401.39559,223.72143 c 2.16479,0.41398 3.65331,1.8815 5.77351,2.39315 1.5353,0.3705 3.31243,0.0551 4.83833,0.44355 0.82683,0.21048 1.67947,0.51117 2.21757,0.99157 0.89429,0.79841 0.11178,2.36302 1.37686,2.8716 0.48018,0.19305 1.15216,-0.0344 1.63708,-0.22174 0.78647,-0.30386 1.60712,-0.77091 1.82809,-1.3725 0.36953,-1.00602 -0.43007,-2.09075 -1.10519,-3.01866 -0.7862,-1.08057 -1.82411,-2.1813 -3.31921,-2.8156 -2.02492,-0.85908 -4.62367,-0.78742 -6.97152,-1.05153 -1.69149,-0.19028 -3.62093,-0.96419 -5.11173,-0.38245 -0.82601,0.32233 -1.00698,1.13986 -1.18886,1.78105 -0.0355,0.12496 -0.10873,0.29358 0.025,0.38156 1e-5,1e-5 4e-5,0 6e-5,0 z"
       id="path4392"
       inkscape:connector-curvature="0"
       sodipodi:nodetypes="aaaaaaaaaaaaaa" />
    <path
       style="opacity:0.4;fill:#fff6d5;fill-opacity:1;fill-rule:evenodd;stroke:none;stroke-width:1px;stroke-linecap:butt;stroke-linejoin:miter;stroke-opacity:1"
       d="m 465.62982,215.67808 c 0.34742,1.57098 0.85185,3.11198 1.07755,4.70501 0.0836,0.59005 0.0206,1.19444 0.10068,1.78498 0.60835,4.48912 1.6456,8.92265 2.87354,13.28321 0.39799,1.41331 -0.0156,4.11714 1.45208,4.15862 0.93376,0.0264 0.98075,-1.65967 1.07177,-2.58936 0.12363,-1.2628 -0.54467,-2.47994 -0.74602,-3.7327 -0.48869,-3.04059 -0.66843,-6.12435 -1.11935,-9.17077 -0.66493,-4.4923 -0.9109,-9.11039 -2.33769,-13.42167 -0.63241,-1.91092 -0.7057,-5.32096 -2.71727,-5.39263 -1.08414,-0.0386 -1.52993,1.71872 -1.66762,2.79478 -0.22344,1.74611 1.04686,3.36332 1.47691,5.07033 0.20901,0.82963 0.35068,1.67483 0.53542,2.5102 z"
       id="path4396"
       inkscape:connector-curvature="0"
       sodipodi:nodetypes="sssssssssssss" />
    <g
       id="g6262"
       style="opacity:0.2;fill:#fff6d5;fill-opacity:1;stroke:none;stroke-width:1;stroke-miterlimit:4;stroke-dasharray:none;stroke-opacity:0.47945204"
       transform="matrix(1,0,0,0.91836288,0.35355339,17.928227)">
      <path
         id="path4443"
         d="m 280.5,202.48633 a 5,3.5625 0 0 0 -5,3.5625 5,3.5625 0 0 0 5,3.5625 5,3.5625 0 0 0 5,-3.5625 5,3.5625 0 0 0 -5,-3.5625 z m -4.59375,9.53711 a 2.5,1.8232234 0 0 0 -2.5,1.82422 2.5,1.8232234 0 0 0 2.5,1.82226 2.5,1.8232234 0 0 0 2.5,-1.82226 2.5,1.8232234 0 0 0 -2.5,-1.82422 z m 6.04492,0.53125 a 1.375,1.0214466 0 0 0 -1.375,1.02148 1.375,1.0214466 0 0 0 1.375,1.02149 1.375,1.0214466 0 0 0 1.375,-1.02149 1.375,1.0214466 0 0 0 -1.375,-1.02148 z m 6.76953,1.08984 a 2.9610097,2.1655147 0 0 0 -2.96093,2.16602 2.9610097,2.1655147 0 0 0 2.96093,2.16601 2.9610097,2.1655147 0 0 0 2.96094,-2.16601 2.9610097,2.1655147 0 0 0 -2.96094,-2.16602 z m -6.5332,2.3418 a 2.0625,1.5 0 0 0 -2.0625,1.5 2.0625,1.5 0 0 0 2.0625,1.5 2.0625,1.5 0 0 0 2.0625,-1.5 2.0625,1.5 0 0 0 -2.0625,-1.5 z m -7.75,1 a 3.1875,2.3125 0 0 0 -3.1875,2.3125 3.1875,2.3125 0 0 0 3.1875,2.3125 3.1875,2.3125 0 0 0 3.1875,-2.3125 3.1875,2.3125 0 0 0 -3.1875,-2.3125 z m 14.96875,2.58008 a 3.3129655,4.8634516 88.344068 0 0 -4.97266,3.31445 3.3129655,4.8634516 88.344068 0 0 4.75196,3.31641 3.3129655,4.8634516 88.344068 0 0 4.9707,-3.31641 3.3129655,4.8634516 88.344068 0 0 -4.75,-3.31445 z m -10.25586,3.08593 a 4.9754128,3.6129758 0 0 0 -4.97656,3.61133 4.9754128,3.6129758 0 0 0 4.97656,3.61328 4.9754128,3.6129758 0 0 0 4.97461,-3.61328 4.9754128,3.6129758 0 0 0 -4.97461,-3.61133 z m 13.2832,4.78125 a 3.9332814,1.9003495 0 0 0 -3.93359,1.90039 3.9332814,1.9003495 0 0 0 3.93359,1.9004 3.9332814,1.9003495 0 0 0 3.93164,-1.9004 3.9332814,1.9003495 0 0 0 -3.93164,-1.90039 z m -10.99609,4.42774 a 2.0625,1.625 0 0 0 -2.0625,1.625 2.0625,1.625 0 0 0 2.0625,1.625 2.0625,1.625 0 0 0 2.0625,-1.625 2.0625,1.625 0 0 0 -2.0625,-1.625 z m 7.5,0.81055 a 4.5625,2.9393399 0 0 0 -4.5625,2.93945 4.5625,2.9393399 0 0 0 4.5625,2.93945 4.5625,2.9393399 0 0 0 4.5625,-2.93945 4.5625,2.9393399 0 0 0 -4.5625,-2.93945 z m 8.39453,5.27734 a 2.1875,1.375 0 0 0 -2.1875,1.375 2.1875,1.375 0 0 0 2.1875,1.375 2.1875,1.375 0 0 0 2.1875,-1.375 2.1875,1.375 0 0 0 -2.1875,-1.375 z m -12.95703,1.41211 a 1.625,1.0625 0 0 0 -1.625,1.0625 1.625,1.0625 0 0 0 1.625,1.0625 1.625,1.0625 0 0 0 1.625,-1.0625 1.625,1.0625 0 0 0 -1.625,-1.0625 z m 8.87305,1.96484 a 5.375,3.4361989 0 0 0 -5.375,3.43555 5.375,3.4361989 0 0 0 5.375,3.43555 5.375,3.4361989 0 0 0 5.375,-3.43555 5.375,3.4361989 0 0 0 -5.375,-3.43555 z"
         style="opacity:0.80500034;fill:#fff6d5;fill-opacity:1;stroke:none;stroke-width:1;stroke-linecap:butt;stroke-linejoin:miter;stroke-miterlimit:4;stroke-dasharray:none;stroke-dashoffset:0;stroke-opacity:0.47945204"
         inkscape:connector-curvature="0" />
      <path
         id="path4457"
         d="m 447.23047,265.04688 a 4.5625,3.1678932 0 0 0 -4.5625,3.16796 4.5625,3.1678932 0 0 0 4.5625,3.16797 4.5625,3.1678932 0 0 0 4.5625,-3.16797 4.5625,3.1678932 0 0 0 -4.5625,-3.16796 z m -19.60547,0.93945 a 4.125,2.125 0 0 0 -4.125,2.125 4.125,2.125 0 0 0 4.125,2.125 4.125,2.125 0 0 0 4.125,-2.125 4.125,2.125 0 0 0 -4.125,-2.125 z m 10.83984,0.15039 a 2.0625,1.2790291 0 0 0 -2.0625,1.2793 2.0625,1.2790291 0 0 0 2.0625,1.27734 2.0625,1.2790291 0 0 0 2.0625,-1.27734 2.0625,1.2790291 0 0 0 -2.0625,-1.2793 z m -2.02734,3.84375 a 3.1875,2.0031407 0 0 0 -3.1875,2.00391 3.1875,2.0031407 0 0 0 3.1875,2.00195 3.1875,2.0031407 0 0 0 3.1875,-2.00195 3.1875,2.0031407 0 0 0 -3.1875,-2.00391 z m -23,1.40625 a 3.8125,2.1754758 0 0 0 -3.8125,2.17578 3.8125,2.1754758 0 0 0 3.8125,2.17383 3.8125,2.1754758 0 0 0 3.8125,-2.17383 3.8125,2.1754758 0 0 0 -3.8125,-2.17578 z m 13.375,0.97461 a 3.6875,2.1571698 0 0 0 -3.6875,2.1582 3.6875,2.1571698 0 0 0 3.6875,2.15625 3.6875,2.1571698 0 0 0 3.6875,-2.15625 3.6875,2.1571698 0 0 0 -3.6875,-2.1582 z m -27.83594,0.25 a 3.8763159,1.8743636 1.7055836 0 0 -3.60156,1.78711 3.8763159,1.8743636 1.7055836 0 0 3.875,1.96289 3.8763159,1.8743636 1.7055836 0 0 3.875,-1.78516 3.8763159,1.8743636 1.7055836 0 0 -3.875,-1.96484 3.8763159,1.8743636 1.7055836 0 0 -0.27344,0 z m 8.89844,2.375 a 1.75,1 0 0 0 -1.75,1 1.75,1 0 0 0 1.75,1 1.75,1 0 0 0 1.75,-1 1.75,1 0 0 0 -1.75,-1 z"
         style="opacity:0.80500034;fill:#fff6d5;fill-opacity:1;stroke:none;stroke-width:1;stroke-linecap:butt;stroke-linejoin:miter;stroke-miterlimit:4;stroke-dasharray:none;stroke-dashoffset:0;stroke-opacity:0.47945204"
         inkscape:connector-curvature="0" />
      <path
         id="path4491"
         d="m 347.75,259.36133 a 7.25,5.375 0 0 0 -7.25,5.375 7.25,5.375 0 0 0 7.25,5.375 7.25,5.375 0 0 0 7.25,-5.375 7.25,5.375 0 0 0 -7.25,-5.375 z m 11.46094,2.45508 a 2.9168155,1.5467961 0 0 0 -2.91797,1.54687 2.9168155,1.5467961 0 0 0 2.91797,1.54688 2.9168155,1.5467961 0 0 0 2.91601,-1.54688 2.9168155,1.5467961 0 0 0 -2.91601,-1.54687 z m -26.10938,1.25 a 4.8125,2.8125 0 0 0 -4.8125,2.8125 4.8125,2.8125 0 0 0 4.8125,2.8125 4.8125,2.8125 0 0 0 4.8125,-2.8125 4.8125,2.8125 0 0 0 -4.8125,-2.8125 z M 370.5,265.36133 a 1.75,1.6875 0 0 0 -1.75,1.6875 1.75,1.6875 0 0 0 1.75,1.6875 1.75,1.6875 0 0 0 1.75,-1.6875 1.75,1.6875 0 0 0 -1.75,-1.6875 z m -8.5,1.375 a 4.125,2.5 0 0 0 -4.125,2.5 4.125,2.5 0 0 0 4.125,2.5 4.125,2.5 0 0 0 4.125,-2.5 4.125,2.5 0 0 0 -4.125,-2.5 z m 6.75,4.125 a 2,1.4375 0 0 0 -2,1.4375 2,1.4375 0 0 0 2,1.4375 2,1.4375 0 0 0 2,-1.4375 2,1.4375 0 0 0 -2,-1.4375 z"
         style="opacity:0.80500034;fill:#fff6d5;fill-opacity:1;stroke:none;stroke-width:1;stroke-linecap:butt;stroke-linejoin:miter;stroke-miterlimit:4;stroke-dasharray:none;stroke-dashoffset:0;stroke-opacity:0.47945204"
         inkscape:connector-curvature="0" />
      <path
         id="path4503"
         d="m 357.39844,169.80469 a 2.6958447,1.6351844 0 0 0 -2.69532,1.63476 2.6958447,1.6351844 0 0 0 2.69532,1.63477 2.6958447,1.6351844 0 0 0 2.69531,-1.63477 2.6958447,1.6351844 0 0 0 -2.69531,-1.63476 z m -9.67774,1.59179 a 7.4246211,5.4800777 0 0 0 -7.42578,5.47852 7.4246211,5.4800777 0 0 0 7.42578,5.48047 7.4246211,5.4800777 0 0 0 7.42383,-5.48047 7.4246211,5.4800777 0 0 0 -7.42383,-5.47852 z m -11.62304,0.97071 a 1.9003495,1.5026019 0 0 0 -1.90039,1.5039 1.9003495,1.5026019 0 0 0 1.90039,1.50196 1.9003495,1.5026019 0 0 0 1.89843,-1.50196 1.9003495,1.5026019 0 0 0 -1.89843,-1.5039 z m -9.10547,2.21093 a 5.7010484,3.1819806 0 0 0 -5.70117,3.18165 5.7010484,3.1819806 0 0 0 5.70117,3.18164 5.7010484,3.1819806 0 0 0 5.70117,-3.18164 5.7010484,3.1819806 0 0 0 -5.70117,-3.18165 z m 8.61914,3.62305 a 1.3258252,0.75130093 0 0 0 -1.32617,0.75195 1.3258252,0.75130093 0 0 0 1.32617,0.75 1.3258252,0.75130093 0 0 0 1.32422,-0.75 1.3258252,0.75130093 0 0 0 -1.32422,-0.75195 z"
         style="opacity:0.80500034;fill:#fff6d5;fill-opacity:1;stroke:none;stroke-width:1;stroke-linecap:butt;stroke-linejoin:miter;stroke-miterlimit:4;stroke-dasharray:none;stroke-dashoffset:0;stroke-opacity:0.47945204"
         inkscape:connector-curvature="0" />
      <path
         id="path4515"
         d="m 546.15234,206.13281 a 6.805903,5.2591066 0 0 0 -6.80664,5.25781 6.805903,5.2591066 0 0 0 6.80664,5.25977 6.805903,5.2591066 0 0 0 6.80469,-5.25977 6.805903,5.2591066 0 0 0 -6.80469,-5.25781 z m -8.13281,8.75 a 1.8561553,1.281631 0 0 0 -1.85547,1.28125 1.8561553,1.281631 0 0 0 1.85547,1.28125 1.8561553,1.281631 0 0 0 1.85742,-1.28125 1.8561553,1.281631 0 0 0 -1.85742,-1.28125 z m 11.40235,3.62305 a 2.1213202,1.8561553 0 0 0 -2.1211,1.85742 2.1213202,1.8561553 0 0 0 2.1211,1.85547 2.1213202,1.8561553 0 0 0 2.12109,-1.85547 2.1213202,1.8561553 0 0 0 -2.12109,-1.85742 z m -8.13086,0.26562 a 2.9168155,1.767767 0 0 0 -2.91797,1.76758 2.9168155,1.767767 0 0 0 2.91797,1.76758 2.9168155,1.767767 0 0 0 2.91601,-1.76758 2.9168155,1.767767 0 0 0 -2.91601,-1.76758 z m 5.83203,4.24219 a 2.9168155,1.9887378 0 0 0 -2.91602,1.99024 2.9168155,1.9887378 0 0 0 2.91602,1.98828 2.9168155,1.9887378 0 0 0 2.91797,-1.98828 2.9168155,1.9887378 0 0 0 -2.91797,-1.99024 z m -5.52344,0.44336 a 0.92807764,0.75130093 0 0 0 -0.92773,0.75 0.92807764,0.75130093 0 0 0 0.92773,0.75195 0.92807764,0.75130093 0 0 0 0.92773,-0.75195 0.92807764,0.75130093 0 0 0 -0.92773,-0.75 z m -2.25391,3.80078 a 6.2755728,4.0658641 0 0 0 -6.27539,4.06446 6.2755728,4.0658641 0 0 0 6.27539,4.0664 6.2755728,4.0658641 0 0 0 6.27539,-4.0664 6.2755728,4.0658641 0 0 0 -6.27539,-4.06446 z m -12.24218,3.00391 a 3.5797281,2.3422911 0 0 0 -3.58008,2.3418 3.5797281,2.3422911 0 0 0 3.58008,2.34375 3.5797281,2.3422911 0 0 0 3.58007,-2.34375 3.5797281,2.3422911 0 0 0 -3.58007,-2.3418 z m -12.99219,3.88867 a 2.3422911,1.281631 0 0 0 -2.34375,1.2832 2.3422911,1.281631 0 0 0 2.34375,1.28125 2.3422911,1.281631 0 0 0 2.34179,-1.28125 2.3422911,1.281631 0 0 0 -2.34179,-1.2832 z m 18.87109,1.50391 a 2.2980971,1.6351844 0 0 0 -2.29883,1.63476 2.2980971,1.6351844 0 0 0 2.29883,1.63477 2.2980971,1.6351844 0 0 0 2.29688,-1.63477 2.2980971,1.6351844 0 0 0 -2.29688,-1.63476 z m -12.99414,1.06054 a 4.9497476,3.1819806 0 0 0 -4.94922,3.18164 4.9497476,3.1819806 0 0 0 4.94922,3.18164 4.9497476,3.1819806 0 0 0 4.94922,-3.18164 4.9497476,3.1819806 0 0 0 -4.94922,-3.18164 z m 10.0332,3.26954 a 3.1377864,1.3700194 0 0 0 -3.13867,1.37109 3.1377864,1.3700194 0 0 0 3.13867,1.36914 3.1377864,1.3700194 0 0 0 3.13672,-1.36914 3.1377864,1.3700194 0 0 0 -3.13672,-1.37109 z"
         style="opacity:0.80500034;fill:#fff6d5;fill-opacity:1;stroke:none;stroke-width:1;stroke-linecap:butt;stroke-linejoin:miter;stroke-miterlimit:4;stroke-dasharray:none;stroke-dashoffset:0;stroke-opacity:0.47945204"
         inkscape:connector-curvature="0" />
      <path
         id="path4543"
         d="m 514.28711,182.35547 a 2.9610097,1.2374369 0 0 0 -2.96094,1.23828 2.9610097,1.2374369 0 0 0 2.96094,1.23633 2.9610097,1.2374369 0 0 0 2.96094,-1.23633 2.9610097,1.2374369 0 0 0 -2.96094,-1.23828 z m 7.73437,2.12109 a 3.0935922,1.8119612 0 0 0 -3.09375,1.8125 3.0935922,1.8119612 0 0 0 3.09375,1.8125 3.0935922,1.8119612 0 0 0 3.09375,-1.8125 3.0935922,1.8119612 0 0 0 -3.09375,-1.8125 z m 9.06055,3.53516 a 4.1100583,1.8561553 0 0 0 -4.11133,1.85742 4.1100583,1.8561553 0 0 0 4.11133,1.85547 4.1100583,1.8561553 0 0 0 4.10938,-1.85547 4.1100583,1.8561553 0 0 0 -4.10938,-1.85742 z"
         style="opacity:0.80500034;fill:#fff6d5;fill-opacity:1;stroke:none;stroke-width:1;stroke-linecap:butt;stroke-linejoin:miter;stroke-miterlimit:4;stroke-dasharray:none;stroke-dashoffset:0;stroke-opacity:0.47945204"
         inkscape:connector-curvature="0" />
    </g>
    <ellipse
       style="opacity:0.80500034;fill:#2b0000;fill-opacity:1;stroke:none;stroke-width:10;stroke-linecap:butt;stroke-linejoin:miter;stroke-miterlimit:4;stroke-dasharray:none;stroke-dashoffset:0;stroke-opacity:1"
       id="path4555"
       cx="289.25085"
       cy="237.86356"
       rx="0.044194173"
       ry="0.26516503" />
  </g>
</svg>
